<?xml version="1.0" encoding="UTF-8"?>
<svg id="Layer_1" data-name="Layer 1" xmlns="http://www.w3.org/2000/svg" viewBox="0 0 800 800">
  <path id="path25111" d="m371.86,62.45l93.17,199.29c1.32-50.4-40.79-169.37-93.17-199.29Zm291.58,14.01c-1.35.12-2.79,1.65-4.35,4.73-21.14,38.64-57.63,61.58-91.73,71.17-34.67,9.73-70.74,32.95-83.97,59.27-15.46,35.89-8.83,64.38,6.21,96.71,18.96-2.87,37.93-10.2,53.99-17.9,41.19-20.06,76.88-51.49,100.09-88.27,9.33-14.79,11.16-12.14,3.12,4.52-15.13,31.36-64.72,75.31-126.98,112.59-13.88,8.31-14.08,8.6-7.85,14.01,19.93,17.34,41.77,27.83,61.59,29.51,85.98.4,122.88-91.72,125.29-155.73-.64-41.54-7.67-95.21-33.1-129.3-.77-.97-1.51-1.38-2.32-1.31h0Zm-313.4,178.69c-137.13,0-248.9,111.77-248.9,248.9,0,137.13,111.77,248.9,248.9,248.9s248.86-111.77,248.86-248.9c0-34.28-6.94-67.13-19.55-96.92l-52.22,22.08c9.72,22.98,15.11,48.22,15.11,74.85,0,103.39-80.8,187.19-182.96,191.99,118.23-80.77,171.75-289.96,108.53-422.95,5.02,91.27.9,339.61-140.41,421.85-95.75-11.14-169.62-92.06-169.62-190.89,0-106.5,85.75-192.2,192.25-192.2,26.62,0,51.79,5.31,74.76,15.03l22.12-52.13c-29.8-12.6-62.6-19.59-96.88-19.59h0Z" fill="#c46b08"/>
</svg>