<?xml version="1.0" encoding="UTF-8"?>
<svg id="Layer_1" data-name="Layer 1" xmlns="http://www.w3.org/2000/svg" viewBox="0 0 800 800">
  <path d="m683.33,481.67c0,98.39,28.43,266.98-108.67,262.33H225.33c-140.63-15.18-108.66-163.94-108.67-262.33h0c-.22-43.12,16.82-84.53,47.33-115h0c30.34-29.93,71.38-46.5,114-46h59c34.66,0,62.82,28,63,62.67h0c0,34.79-28.21,63-63,63h-94.33" fill="none" stroke="#020202" stroke-miterlimit="333.33" stroke-width="63"/>
  <path d="m242.67,446.33l11.33,4.67c87.99,35.51,145.71,120.78,146,215.67h0" fill="none" stroke="#020202" stroke-miterlimit="333.33" stroke-width="63"/>
  <path d="m200,320.67l-38.67-208c-5.86-34.19,16.87-66.74,51-73,3.66-.33,7.34-.33,11,0,30.33-.04,56.38,21.53,62,51.33l41,233.33" fill="none" stroke="#020202" stroke-miterlimit="333.33" stroke-width="63"/>
  <path d="m345.67,335l43-244c5.19-30.2,31.36-52.29,62-52.33,3.66-.33,7.34-.33,11,0,34.13,6.26,56.86,38.81,51,73l-37.33,212" fill="none" stroke="#020202" stroke-miterlimit="333.33" stroke-width="63"/>
  <path d="m494.33,320.67h0c34.79,0,63,28.21,63,63v94.33c0,34.79-28.21,63-63,63h0c-34.79,0-63-28.21-63-63v-94.33c0-34.79,28.21-63,63-63Z" fill="none" stroke="#020202" stroke-miterlimit="333.33" stroke-width="63"/>
  <rect x="557.33" y="352" width="126" height="189" rx="63" ry="63" fill="none" stroke="#020202" stroke-miterlimit="333.33" stroke-width="63"/>
</svg>