<?xml version="1.0" encoding="utf-8"?>
<!-- Generator: Adobe Illustrator 27.3.1, SVG Export Plug-In . SVG Version: 6.00 Build 0)  -->
<svg version="1.1" id="Layer_1" xmlns="http://www.w3.org/2000/svg" xmlns:xlink="http://www.w3.org/1999/xlink" x="0px" y="0px"
	 viewBox="0 0 800 800" style="enable-background:new 0 0 800 800;" xml:space="preserve">
<style type="text/css">
	.st0{fill:none;stroke:#020202;stroke-width:63;stroke-miterlimit:333.3333;}
</style>
<path class="st0" d="M683.3,481.7c0,98.4,28.4,267-108.7,262.3H225.3C84.7,728.8,116.7,580.1,116.7,481.7l0,0
	c-0.2-43.1,16.8-84.5,47.3-115l0,0c30.3-29.9,71.4-46.5,114-46h59c34.7,0,62.8,28,63,62.7l0,0c0,34.8-28.2,63-63,63h0h-94.3"/>
<path class="st0" d="M242.7,446.3L254,451c88,35.5,145.7,120.8,146,215.7l0,0"/>
<path class="st0" d="M200,320.7l-38.7-208c-5.9-34.2,16.9-66.7,51-73c3.7-0.3,7.3-0.3,11,0c30.3,0,56.4,21.5,62,51.3l41,233.3"/>
<path class="st0" d="M345.7,335l43-244c5.2-30.2,31.4-52.3,62-52.3c3.7-0.3,7.3-0.3,11,0c34.1,6.3,56.9,38.8,51,73l-37.3,212"/>
<path class="st0" d="M494.3,320.7L494.3,320.7c34.8,0,63,28.2,63,63V478c0,34.8-28.2,63-63,63h0c-34.8,0-63-28.2-63-63v-94.3
	C431.3,348.9,459.5,320.7,494.3,320.7z"/>
<path class="st0" d="M620.3,352L620.3,352c34.8,0,63,28.2,63,63v63c0,34.8-28.2,63-63,63h0c-34.8,0-63-28.2-63-63v-63
	C557.3,380.2,585.5,352,620.3,352z"/>
</svg>
